G04 #@! TF.GenerationSoftware,KiCad,Pcbnew,(6.0.0-rc1-dev-159-g1e43773)*
G04 #@! TF.CreationDate,2018-07-25T22:10:03-05:00*
G04 #@! TF.ProjectId,bbb_alien_harness,6262625F616C69656E5F6861726E6573,rev?*
G04 #@! TF.SameCoordinates,Original*
G04 #@! TF.FileFunction,Legend,Bot*
G04 #@! TF.FilePolarity,Positive*
%FSLAX46Y46*%
G04 Gerber Fmt 4.6, Leading zero omitted, Abs format (unit mm)*
G04 Created by KiCad (PCBNEW (6.0.0-rc1-dev-159-g1e43773)) date Wed Jul 25 22:10:03 2018*
%MOMM*%
%LPD*%
G01*
G04 APERTURE LIST*
%ADD10C,0.120000*%
%ADD11C,0.150000*%
G04 APERTURE END LIST*
D10*
G04 #@! TO.C,R29*
X139120367Y-98790000D02*
X139120367Y-96790000D01*
X136980367Y-96790000D02*
X136980367Y-98790000D01*
G04 #@! TO.C,U9*
X102283323Y-93520443D02*
X102283323Y-91720443D01*
X105503323Y-91720443D02*
X105503323Y-94170443D01*
G04 #@! TO.C,R23*
X98156323Y-92120443D02*
X98156323Y-93120443D01*
X101756323Y-93120443D02*
X101756323Y-92120443D01*
G04 #@! TO.C,R27*
X135564367Y-87773000D02*
X135564367Y-85773000D01*
X133424367Y-85773000D02*
X133424367Y-87773000D01*
D11*
G04 #@! TO.C,D4*
X80354367Y-112298480D02*
X80354367Y-109697520D01*
X81954367Y-112298480D02*
X81954367Y-109697520D01*
G04 #@! TO.C,D5*
X85764367Y-84485480D02*
X85764367Y-81884520D01*
X84164367Y-84485480D02*
X84164367Y-81884520D01*
D10*
G04 #@! TO.C,R22*
X109020758Y-108274300D02*
X109020758Y-109274300D01*
X112620758Y-109274300D02*
X112620758Y-108274300D01*
D11*
G04 #@! TO.C,U5*
X140529167Y-105519400D02*
X140529167Y-104119400D01*
X145629167Y-105519400D02*
X145629167Y-109669400D01*
X140479167Y-105519400D02*
X140479167Y-109669400D01*
X145629167Y-105519400D02*
X145484167Y-105519400D01*
X145629167Y-109669400D02*
X145484167Y-109669400D01*
X140479167Y-109669400D02*
X140624167Y-109669400D01*
X140479167Y-105519400D02*
X140529167Y-105519400D01*
D10*
G04 #@! TO.C,R28*
X104614567Y-100968200D02*
X106614567Y-100968200D01*
X106614567Y-98828200D02*
X104614567Y-98828200D01*
G04 #@! TO.C,S1*
X155736367Y-109534000D02*
X150336367Y-109534000D01*
X157646367Y-103064000D02*
X150336367Y-103064000D01*
G04 #@! TO.C,C14*
X117017167Y-85701600D02*
X117017167Y-87881600D01*
X117017167Y-92301600D02*
X117017167Y-90121600D01*
X110417167Y-86461600D02*
X110417167Y-87881600D01*
X110417167Y-91541600D02*
X110417167Y-90121600D01*
X117017167Y-85701600D02*
X111177167Y-85701600D01*
X111177167Y-85701600D02*
X110417167Y-86461600D01*
X110417167Y-91541600D02*
X111177167Y-92301600D01*
X111177167Y-92301600D02*
X117017167Y-92301600D01*
G04 #@! TO.C,C7*
X136534367Y-114974000D02*
X137534367Y-114974000D01*
X137534367Y-116674000D02*
X136534367Y-116674000D01*
G04 #@! TO.C,C13*
X107912367Y-88527000D02*
X107912367Y-89527000D01*
X106212367Y-89527000D02*
X106212367Y-88527000D01*
G04 #@! TO.C,C21*
X140932367Y-91436658D02*
X140932367Y-92436658D01*
X139232367Y-92436658D02*
X139232367Y-91436658D01*
G04 #@! TO.C,C15*
X119799567Y-108288200D02*
X119799567Y-109288200D01*
X118099567Y-109288200D02*
X118099567Y-108288200D01*
G04 #@! TO.C,C16*
X107861567Y-93276800D02*
X107861567Y-94276800D01*
X106161567Y-94276800D02*
X106161567Y-93276800D01*
G04 #@! TO.C,C17*
X115182367Y-95719000D02*
X114182367Y-95719000D01*
X114182367Y-94019000D02*
X115182367Y-94019000D01*
G04 #@! TO.C,C18*
X151473367Y-91575000D02*
X151473367Y-92575000D01*
X149773367Y-92575000D02*
X149773367Y-91575000D01*
G04 #@! TO.C,C19*
X144566367Y-92428000D02*
X144566367Y-91428000D01*
X146266367Y-91428000D02*
X146266367Y-92428000D01*
G04 #@! TO.C,U12*
X100574800Y-112023200D02*
X100574800Y-109788200D01*
X108314800Y-112023200D02*
X100574800Y-112023200D01*
X108314800Y-105553200D02*
X108314800Y-112023200D01*
X100574800Y-105553200D02*
X108314800Y-105553200D01*
X100574800Y-107788200D02*
X100574800Y-105553200D01*
X100574800Y-109788200D02*
G75*
G03X100574800Y-107788200I0J1000000D01*
G01*
D11*
G04 #@! TO.C,U7*
X106697600Y-81064000D02*
X107997600Y-81064000D01*
X106697600Y-86014000D02*
X102547600Y-86014000D01*
X106697600Y-80864000D02*
X102547600Y-80864000D01*
X106697600Y-86014000D02*
X106697600Y-85814000D01*
X102547600Y-86014000D02*
X102547600Y-85814000D01*
X102547600Y-80864000D02*
X102547600Y-81064000D01*
X106697600Y-80864000D02*
X106697600Y-81064000D01*
G04 #@! TO.C,U10*
X117070967Y-103239200D02*
X117070967Y-104589200D01*
X113920967Y-103239200D02*
X113920967Y-98589200D01*
X117170967Y-103239200D02*
X117170967Y-98589200D01*
X113920967Y-103239200D02*
X114120967Y-103239200D01*
X113920967Y-98589200D02*
X114120967Y-98589200D01*
X117170967Y-98589200D02*
X116970967Y-98589200D01*
X117170967Y-103239200D02*
X117070967Y-103239200D01*
D10*
G04 #@! TO.C,R9*
X131373367Y-112125000D02*
X131373367Y-110125000D01*
X129233367Y-110125000D02*
X129233367Y-112125000D01*
G04 #@! TO.C,R3*
X124953367Y-109166000D02*
X122953367Y-109166000D01*
X122953367Y-111306000D02*
X124953367Y-111306000D01*
G04 #@! TO.C,R2*
X124953367Y-111579000D02*
X122953367Y-111579000D01*
X122953367Y-113719000D02*
X124953367Y-113719000D01*
G04 #@! TO.C,R11*
X136732767Y-112175800D02*
X136732767Y-110175800D01*
X134592767Y-110175800D02*
X134592767Y-112175800D01*
G04 #@! TO.C,R10*
X131900367Y-110175800D02*
X131900367Y-112175800D01*
X134040367Y-112175800D02*
X134040367Y-110175800D01*
G04 #@! TO.C,R25*
X106665367Y-96339000D02*
X104665367Y-96339000D01*
X104665367Y-98479000D02*
X106665367Y-98479000D01*
G04 #@! TO.C,R26*
X144765367Y-84274000D02*
X142765367Y-84274000D01*
X142765367Y-86414000D02*
X144765367Y-86414000D01*
G04 #@! TO.C,R24*
X118196967Y-112442600D02*
X116196967Y-112442600D01*
X116196967Y-114582600D02*
X118196967Y-114582600D01*
G04 #@! TO.C,R21*
X93303600Y-85779000D02*
X95303600Y-85779000D01*
X95303600Y-83639000D02*
X93303600Y-83639000D01*
G04 #@! TO.C,R20*
X95335600Y-81099000D02*
X93335600Y-81099000D01*
X93335600Y-83239000D02*
X95335600Y-83239000D01*
G04 #@! TO.C,R19*
X112958367Y-83169000D02*
X112958367Y-81169000D01*
X110818367Y-81169000D02*
X110818367Y-83169000D01*
G04 #@! TO.C,R18*
X120368767Y-90897200D02*
X120368767Y-92897200D01*
X122508767Y-92897200D02*
X122508767Y-90897200D01*
G04 #@! TO.C,R14*
X142054167Y-114252400D02*
X144054167Y-114252400D01*
X144054167Y-112112400D02*
X142054167Y-112112400D01*
G04 #@! TO.C,R13*
X144054167Y-114525400D02*
X142054167Y-114525400D01*
X142054167Y-116665400D02*
X144054167Y-116665400D01*
G04 #@! TO.C,R12*
X139425167Y-112175800D02*
X139425167Y-110175800D01*
X137285167Y-110175800D02*
X137285167Y-112175800D01*
G04 #@! TO.C,U8*
X116462826Y-107880637D02*
X116462826Y-110330637D01*
X113242826Y-109680637D02*
X113242826Y-107880637D01*
D11*
G04 #@! TO.C,D14*
X138850367Y-93455138D02*
X138850367Y-90854178D01*
X137250367Y-93455138D02*
X137250367Y-90854178D01*
G04 #@! TO.C,D13*
X140425367Y-98328480D02*
X140425367Y-95727520D01*
X142025367Y-98328480D02*
X142025367Y-95727520D01*
G04 #@! TO.C,D12*
X144184367Y-93446480D02*
X144184367Y-90845520D01*
X142584367Y-93446480D02*
X142584367Y-90845520D01*
G04 #@! TO.C,D11*
X143727367Y-98328480D02*
X143727367Y-95727520D01*
X145327367Y-98328480D02*
X145327367Y-95727520D01*
G04 #@! TO.C,D10*
X149264367Y-93593480D02*
X149264367Y-90992520D01*
X147664367Y-93593480D02*
X147664367Y-90992520D01*
G04 #@! TO.C,D9*
X147156367Y-98328480D02*
X147156367Y-95727520D01*
X148756367Y-98328480D02*
X148756367Y-95727520D01*
G04 #@! TO.C,R29*
X136652747Y-97147142D02*
X136176557Y-96813809D01*
X136652747Y-96575714D02*
X135652747Y-96575714D01*
X135652747Y-96956666D01*
X135700367Y-97051904D01*
X135747986Y-97099523D01*
X135843224Y-97147142D01*
X135986081Y-97147142D01*
X136081319Y-97099523D01*
X136128938Y-97051904D01*
X136176557Y-96956666D01*
X136176557Y-96575714D01*
X135747986Y-97528095D02*
X135700367Y-97575714D01*
X135652747Y-97670952D01*
X135652747Y-97909047D01*
X135700367Y-98004285D01*
X135747986Y-98051904D01*
X135843224Y-98099523D01*
X135938462Y-98099523D01*
X136081319Y-98051904D01*
X136652747Y-97480476D01*
X136652747Y-98099523D01*
X136652747Y-98575714D02*
X136652747Y-98766190D01*
X136605128Y-98861428D01*
X136557509Y-98909047D01*
X136414652Y-99004285D01*
X136224176Y-99051904D01*
X135843224Y-99051904D01*
X135747986Y-99004285D01*
X135700367Y-98956666D01*
X135652747Y-98861428D01*
X135652747Y-98670952D01*
X135700367Y-98575714D01*
X135747986Y-98528095D01*
X135843224Y-98480476D01*
X136081319Y-98480476D01*
X136176557Y-98528095D01*
X136224176Y-98575714D01*
X136271795Y-98670952D01*
X136271795Y-98861428D01*
X136224176Y-98956666D01*
X136176557Y-99004285D01*
X136081319Y-99051904D01*
G04 #@! TO.C,U9*
X103633271Y-88733380D02*
X103633271Y-89542904D01*
X103585652Y-89638142D01*
X103538033Y-89685761D01*
X103442795Y-89733380D01*
X103252319Y-89733380D01*
X103157081Y-89685761D01*
X103109462Y-89638142D01*
X103061843Y-89542904D01*
X103061843Y-88733380D01*
X102538033Y-89733380D02*
X102347557Y-89733380D01*
X102252319Y-89685761D01*
X102204700Y-89638142D01*
X102109462Y-89495285D01*
X102061843Y-89304809D01*
X102061843Y-88923857D01*
X102109462Y-88828619D01*
X102157081Y-88781000D01*
X102252319Y-88733380D01*
X102442795Y-88733380D01*
X102538033Y-88781000D01*
X102585652Y-88828619D01*
X102633271Y-88923857D01*
X102633271Y-89161952D01*
X102585652Y-89257190D01*
X102538033Y-89304809D01*
X102442795Y-89352428D01*
X102252319Y-89352428D01*
X102157081Y-89304809D01*
X102109462Y-89257190D01*
X102061843Y-89161952D01*
G04 #@! TO.C,R23*
X100720224Y-95575380D02*
X101053557Y-95099190D01*
X101291652Y-95575380D02*
X101291652Y-94575380D01*
X100910700Y-94575380D01*
X100815462Y-94623000D01*
X100767843Y-94670619D01*
X100720224Y-94765857D01*
X100720224Y-94908714D01*
X100767843Y-95003952D01*
X100815462Y-95051571D01*
X100910700Y-95099190D01*
X101291652Y-95099190D01*
X100339271Y-94670619D02*
X100291652Y-94623000D01*
X100196414Y-94575380D01*
X99958319Y-94575380D01*
X99863081Y-94623000D01*
X99815462Y-94670619D01*
X99767843Y-94765857D01*
X99767843Y-94861095D01*
X99815462Y-95003952D01*
X100386890Y-95575380D01*
X99767843Y-95575380D01*
X99434509Y-94575380D02*
X98815462Y-94575380D01*
X99148795Y-94956333D01*
X99005938Y-94956333D01*
X98910700Y-95003952D01*
X98863081Y-95051571D01*
X98815462Y-95146809D01*
X98815462Y-95384904D01*
X98863081Y-95480142D01*
X98910700Y-95527761D01*
X99005938Y-95575380D01*
X99291652Y-95575380D01*
X99386890Y-95527761D01*
X99434509Y-95480142D01*
G04 #@! TO.C,MP2*
X122392690Y-80335380D02*
X122392690Y-79335380D01*
X122059357Y-80049666D01*
X121726024Y-79335380D01*
X121726024Y-80335380D01*
X121249833Y-80335380D02*
X121249833Y-79335380D01*
X120868881Y-79335380D01*
X120773643Y-79383000D01*
X120726024Y-79430619D01*
X120678405Y-79525857D01*
X120678405Y-79668714D01*
X120726024Y-79763952D01*
X120773643Y-79811571D01*
X120868881Y-79859190D01*
X121249833Y-79859190D01*
X120297452Y-79430619D02*
X120249833Y-79383000D01*
X120154595Y-79335380D01*
X119916500Y-79335380D01*
X119821262Y-79383000D01*
X119773643Y-79430619D01*
X119726024Y-79525857D01*
X119726024Y-79621095D01*
X119773643Y-79763952D01*
X120345071Y-80335380D01*
X119726024Y-80335380D01*
G04 #@! TO.C,MP3*
X119598690Y-121349780D02*
X119598690Y-120349780D01*
X119265357Y-121064066D01*
X118932024Y-120349780D01*
X118932024Y-121349780D01*
X118455833Y-121349780D02*
X118455833Y-120349780D01*
X118074881Y-120349780D01*
X117979643Y-120397400D01*
X117932024Y-120445019D01*
X117884405Y-120540257D01*
X117884405Y-120683114D01*
X117932024Y-120778352D01*
X117979643Y-120825971D01*
X118074881Y-120873590D01*
X118455833Y-120873590D01*
X117551071Y-120349780D02*
X116932024Y-120349780D01*
X117265357Y-120730733D01*
X117122500Y-120730733D01*
X117027262Y-120778352D01*
X116979643Y-120825971D01*
X116932024Y-120921209D01*
X116932024Y-121159304D01*
X116979643Y-121254542D01*
X117027262Y-121302161D01*
X117122500Y-121349780D01*
X117408214Y-121349780D01*
X117503452Y-121302161D01*
X117551071Y-121254542D01*
G04 #@! TO.C,R27*
X136796747Y-86130142D02*
X136320557Y-85796809D01*
X136796747Y-85558714D02*
X135796747Y-85558714D01*
X135796747Y-85939666D01*
X135844367Y-86034904D01*
X135891986Y-86082523D01*
X135987224Y-86130142D01*
X136130081Y-86130142D01*
X136225319Y-86082523D01*
X136272938Y-86034904D01*
X136320557Y-85939666D01*
X136320557Y-85558714D01*
X135891986Y-86511095D02*
X135844367Y-86558714D01*
X135796747Y-86653952D01*
X135796747Y-86892047D01*
X135844367Y-86987285D01*
X135891986Y-87034904D01*
X135987224Y-87082523D01*
X136082462Y-87082523D01*
X136225319Y-87034904D01*
X136796747Y-86463476D01*
X136796747Y-87082523D01*
X135796747Y-87415857D02*
X135796747Y-88082523D01*
X136796747Y-87653952D01*
G04 #@! TO.C,D4*
X83456747Y-110259904D02*
X82456747Y-110259904D01*
X82456747Y-110498000D01*
X82504367Y-110640857D01*
X82599605Y-110736095D01*
X82694843Y-110783714D01*
X82885319Y-110831333D01*
X83028176Y-110831333D01*
X83218652Y-110783714D01*
X83313890Y-110736095D01*
X83409128Y-110640857D01*
X83456747Y-110498000D01*
X83456747Y-110259904D01*
X82790081Y-111688476D02*
X83456747Y-111688476D01*
X82409128Y-111450380D02*
X83123414Y-111212285D01*
X83123414Y-111831333D01*
G04 #@! TO.C,D5*
X87266747Y-82446904D02*
X86266747Y-82446904D01*
X86266747Y-82685000D01*
X86314367Y-82827857D01*
X86409605Y-82923095D01*
X86504843Y-82970714D01*
X86695319Y-83018333D01*
X86838176Y-83018333D01*
X87028652Y-82970714D01*
X87123890Y-82923095D01*
X87219128Y-82827857D01*
X87266747Y-82685000D01*
X87266747Y-82446904D01*
X86266747Y-83923095D02*
X86266747Y-83446904D01*
X86742938Y-83399285D01*
X86695319Y-83446904D01*
X86647700Y-83542142D01*
X86647700Y-83780238D01*
X86695319Y-83875476D01*
X86742938Y-83923095D01*
X86838176Y-83970714D01*
X87076271Y-83970714D01*
X87171509Y-83923095D01*
X87219128Y-83875476D01*
X87266747Y-83780238D01*
X87266747Y-83542142D01*
X87219128Y-83446904D01*
X87171509Y-83399285D01*
G04 #@! TO.C,MP4*
X152694890Y-111831380D02*
X152694890Y-110831380D01*
X152361557Y-111545666D01*
X152028224Y-110831380D01*
X152028224Y-111831380D01*
X151552033Y-111831380D02*
X151552033Y-110831380D01*
X151171081Y-110831380D01*
X151075843Y-110879000D01*
X151028224Y-110926619D01*
X150980605Y-111021857D01*
X150980605Y-111164714D01*
X151028224Y-111259952D01*
X151075843Y-111307571D01*
X151171081Y-111355190D01*
X151552033Y-111355190D01*
X150123462Y-111164714D02*
X150123462Y-111831380D01*
X150361557Y-110783761D02*
X150599652Y-111498047D01*
X149980605Y-111498047D01*
G04 #@! TO.C,R22*
X111388224Y-105989380D02*
X111721557Y-105513190D01*
X111959652Y-105989380D02*
X111959652Y-104989380D01*
X111578700Y-104989380D01*
X111483462Y-105037000D01*
X111435843Y-105084619D01*
X111388224Y-105179857D01*
X111388224Y-105322714D01*
X111435843Y-105417952D01*
X111483462Y-105465571D01*
X111578700Y-105513190D01*
X111959652Y-105513190D01*
X111007271Y-105084619D02*
X110959652Y-105037000D01*
X110864414Y-104989380D01*
X110626319Y-104989380D01*
X110531081Y-105037000D01*
X110483462Y-105084619D01*
X110435843Y-105179857D01*
X110435843Y-105275095D01*
X110483462Y-105417952D01*
X111054890Y-105989380D01*
X110435843Y-105989380D01*
X110054890Y-105084619D02*
X110007271Y-105037000D01*
X109912033Y-104989380D01*
X109673938Y-104989380D01*
X109578700Y-105037000D01*
X109531081Y-105084619D01*
X109483462Y-105179857D01*
X109483462Y-105275095D01*
X109531081Y-105417952D01*
X110102509Y-105989380D01*
X109483462Y-105989380D01*
G04 #@! TO.C,U5*
X146642480Y-106832495D02*
X147452004Y-106832495D01*
X147547242Y-106880114D01*
X147594861Y-106927733D01*
X147642480Y-107022971D01*
X147642480Y-107213447D01*
X147594861Y-107308685D01*
X147547242Y-107356304D01*
X147452004Y-107403923D01*
X146642480Y-107403923D01*
X146642480Y-108356304D02*
X146642480Y-107880114D01*
X147118671Y-107832495D01*
X147071052Y-107880114D01*
X147023433Y-107975352D01*
X147023433Y-108213447D01*
X147071052Y-108308685D01*
X147118671Y-108356304D01*
X147213909Y-108403923D01*
X147452004Y-108403923D01*
X147547242Y-108356304D01*
X147594861Y-108308685D01*
X147642480Y-108213447D01*
X147642480Y-107975352D01*
X147594861Y-107880114D01*
X147547242Y-107832495D01*
G04 #@! TO.C,R28*
X111134224Y-100401380D02*
X111467557Y-99925190D01*
X111705652Y-100401380D02*
X111705652Y-99401380D01*
X111324700Y-99401380D01*
X111229462Y-99449000D01*
X111181843Y-99496619D01*
X111134224Y-99591857D01*
X111134224Y-99734714D01*
X111181843Y-99829952D01*
X111229462Y-99877571D01*
X111324700Y-99925190D01*
X111705652Y-99925190D01*
X110753271Y-99496619D02*
X110705652Y-99449000D01*
X110610414Y-99401380D01*
X110372319Y-99401380D01*
X110277081Y-99449000D01*
X110229462Y-99496619D01*
X110181843Y-99591857D01*
X110181843Y-99687095D01*
X110229462Y-99829952D01*
X110800890Y-100401380D01*
X110181843Y-100401380D01*
X109610414Y-99829952D02*
X109705652Y-99782333D01*
X109753271Y-99734714D01*
X109800890Y-99639476D01*
X109800890Y-99591857D01*
X109753271Y-99496619D01*
X109705652Y-99449000D01*
X109610414Y-99401380D01*
X109419938Y-99401380D01*
X109324700Y-99449000D01*
X109277081Y-99496619D01*
X109229462Y-99591857D01*
X109229462Y-99639476D01*
X109277081Y-99734714D01*
X109324700Y-99782333D01*
X109419938Y-99829952D01*
X109610414Y-99829952D01*
X109705652Y-99877571D01*
X109753271Y-99925190D01*
X109800890Y-100020428D01*
X109800890Y-100210904D01*
X109753271Y-100306142D01*
X109705652Y-100353761D01*
X109610414Y-100401380D01*
X109419938Y-100401380D01*
X109324700Y-100353761D01*
X109277081Y-100306142D01*
X109229462Y-100210904D01*
X109229462Y-100020428D01*
X109277081Y-99925190D01*
X109324700Y-99877571D01*
X109419938Y-99829952D01*
G04 #@! TO.C,S1*
X153798271Y-102468761D02*
X153655414Y-102516380D01*
X153417319Y-102516380D01*
X153322081Y-102468761D01*
X153274462Y-102421142D01*
X153226843Y-102325904D01*
X153226843Y-102230666D01*
X153274462Y-102135428D01*
X153322081Y-102087809D01*
X153417319Y-102040190D01*
X153607795Y-101992571D01*
X153703033Y-101944952D01*
X153750652Y-101897333D01*
X153798271Y-101802095D01*
X153798271Y-101706857D01*
X153750652Y-101611619D01*
X153703033Y-101564000D01*
X153607795Y-101516380D01*
X153369700Y-101516380D01*
X153226843Y-101564000D01*
X152274462Y-102516380D02*
X152845890Y-102516380D01*
X152560176Y-102516380D02*
X152560176Y-101516380D01*
X152655414Y-101659238D01*
X152750652Y-101754476D01*
X152845890Y-101802095D01*
G04 #@! TO.C,MP1*
X112613547Y-116902076D02*
X111613547Y-116902076D01*
X112327833Y-117235409D01*
X111613547Y-117568742D01*
X112613547Y-117568742D01*
X112613547Y-118044933D02*
X111613547Y-118044933D01*
X111613547Y-118425885D01*
X111661167Y-118521123D01*
X111708786Y-118568742D01*
X111804024Y-118616361D01*
X111946881Y-118616361D01*
X112042119Y-118568742D01*
X112089738Y-118521123D01*
X112137357Y-118425885D01*
X112137357Y-118044933D01*
X112613547Y-119568742D02*
X112613547Y-118997314D01*
X112613547Y-119283028D02*
X111613547Y-119283028D01*
X111756405Y-119187790D01*
X111851643Y-119092552D01*
X111899262Y-118997314D01*
G04 #@! TO.C,C14*
X117754224Y-86875857D02*
X117706605Y-86923476D01*
X117658986Y-87066333D01*
X117658986Y-87161571D01*
X117706605Y-87304428D01*
X117801843Y-87399666D01*
X117897081Y-87447285D01*
X118087557Y-87494904D01*
X118230414Y-87494904D01*
X118420890Y-87447285D01*
X118516128Y-87399666D01*
X118611367Y-87304428D01*
X118658986Y-87161571D01*
X118658986Y-87066333D01*
X118611367Y-86923476D01*
X118563747Y-86875857D01*
X117658986Y-85923476D02*
X117658986Y-86494904D01*
X117658986Y-86209190D02*
X118658986Y-86209190D01*
X118516128Y-86304428D01*
X118420890Y-86399666D01*
X118373271Y-86494904D01*
X118325652Y-85066333D02*
X117658986Y-85066333D01*
X118706605Y-85304428D02*
X117992319Y-85542523D01*
X117992319Y-84923476D01*
X109818119Y-86063028D02*
X109056214Y-86063028D01*
X109437167Y-86443980D02*
X109437167Y-85682076D01*
G04 #@! TO.C,C7*
X137151139Y-118090409D02*
X137198758Y-118138028D01*
X137341615Y-118185647D01*
X137436853Y-118185647D01*
X137579711Y-118138028D01*
X137674949Y-118042790D01*
X137722568Y-117947552D01*
X137770187Y-117757076D01*
X137770187Y-117614219D01*
X137722568Y-117423743D01*
X137674949Y-117328505D01*
X137579711Y-117233267D01*
X137436853Y-117185647D01*
X137341615Y-117185647D01*
X137198758Y-117233267D01*
X137151139Y-117280886D01*
X136817806Y-117185647D02*
X136151139Y-117185647D01*
X136579711Y-118185647D01*
G04 #@! TO.C,C13*
X105514509Y-87622142D02*
X105562128Y-87574523D01*
X105609747Y-87431666D01*
X105609747Y-87336428D01*
X105562128Y-87193571D01*
X105466890Y-87098333D01*
X105371652Y-87050714D01*
X105181176Y-87003095D01*
X105038319Y-87003095D01*
X104847843Y-87050714D01*
X104752605Y-87098333D01*
X104657367Y-87193571D01*
X104609747Y-87336428D01*
X104609747Y-87431666D01*
X104657367Y-87574523D01*
X104704986Y-87622142D01*
X105609747Y-88574523D02*
X105609747Y-88003095D01*
X105609747Y-88288809D02*
X104609747Y-88288809D01*
X104752605Y-88193571D01*
X104847843Y-88098333D01*
X104895462Y-88003095D01*
X104609747Y-88907857D02*
X104609747Y-89526904D01*
X104990700Y-89193571D01*
X104990700Y-89336428D01*
X105038319Y-89431666D01*
X105085938Y-89479285D01*
X105181176Y-89526904D01*
X105419271Y-89526904D01*
X105514509Y-89479285D01*
X105562128Y-89431666D01*
X105609747Y-89336428D01*
X105609747Y-89050714D01*
X105562128Y-88955476D01*
X105514509Y-88907857D01*
G04 #@! TO.C,C21*
X140312509Y-87622142D02*
X140360128Y-87574523D01*
X140407747Y-87431666D01*
X140407747Y-87336428D01*
X140360128Y-87193571D01*
X140264890Y-87098333D01*
X140169652Y-87050714D01*
X139979176Y-87003095D01*
X139836319Y-87003095D01*
X139645843Y-87050714D01*
X139550605Y-87098333D01*
X139455367Y-87193571D01*
X139407747Y-87336428D01*
X139407747Y-87431666D01*
X139455367Y-87574523D01*
X139502986Y-87622142D01*
X139502986Y-88003095D02*
X139455367Y-88050714D01*
X139407747Y-88145952D01*
X139407747Y-88384047D01*
X139455367Y-88479285D01*
X139502986Y-88526904D01*
X139598224Y-88574523D01*
X139693462Y-88574523D01*
X139836319Y-88526904D01*
X140407747Y-87955476D01*
X140407747Y-88574523D01*
X140407747Y-89526904D02*
X140407747Y-88955476D01*
X140407747Y-89241190D02*
X139407747Y-89241190D01*
X139550605Y-89145952D01*
X139645843Y-89050714D01*
X139693462Y-88955476D01*
G04 #@! TO.C,C15*
X121262509Y-106926142D02*
X121310128Y-106878523D01*
X121357747Y-106735666D01*
X121357747Y-106640428D01*
X121310128Y-106497571D01*
X121214890Y-106402333D01*
X121119652Y-106354714D01*
X120929176Y-106307095D01*
X120786319Y-106307095D01*
X120595843Y-106354714D01*
X120500605Y-106402333D01*
X120405367Y-106497571D01*
X120357747Y-106640428D01*
X120357747Y-106735666D01*
X120405367Y-106878523D01*
X120452986Y-106926142D01*
X121357747Y-107878523D02*
X121357747Y-107307095D01*
X121357747Y-107592809D02*
X120357747Y-107592809D01*
X120500605Y-107497571D01*
X120595843Y-107402333D01*
X120643462Y-107307095D01*
X120357747Y-108783285D02*
X120357747Y-108307095D01*
X120833938Y-108259476D01*
X120786319Y-108307095D01*
X120738700Y-108402333D01*
X120738700Y-108640428D01*
X120786319Y-108735666D01*
X120833938Y-108783285D01*
X120929176Y-108830904D01*
X121167271Y-108830904D01*
X121262509Y-108783285D01*
X121310128Y-108735666D01*
X121357747Y-108640428D01*
X121357747Y-108402333D01*
X121310128Y-108307095D01*
X121262509Y-108259476D01*
G04 #@! TO.C,C16*
X109578509Y-93210142D02*
X109626128Y-93162523D01*
X109673747Y-93019666D01*
X109673747Y-92924428D01*
X109626128Y-92781571D01*
X109530890Y-92686333D01*
X109435652Y-92638714D01*
X109245176Y-92591095D01*
X109102319Y-92591095D01*
X108911843Y-92638714D01*
X108816605Y-92686333D01*
X108721367Y-92781571D01*
X108673747Y-92924428D01*
X108673747Y-93019666D01*
X108721367Y-93162523D01*
X108768986Y-93210142D01*
X109673747Y-94162523D02*
X109673747Y-93591095D01*
X109673747Y-93876809D02*
X108673747Y-93876809D01*
X108816605Y-93781571D01*
X108911843Y-93686333D01*
X108959462Y-93591095D01*
X108673747Y-95019666D02*
X108673747Y-94829190D01*
X108721367Y-94733952D01*
X108768986Y-94686333D01*
X108911843Y-94591095D01*
X109102319Y-94543476D01*
X109483271Y-94543476D01*
X109578509Y-94591095D01*
X109626128Y-94638714D01*
X109673747Y-94733952D01*
X109673747Y-94924428D01*
X109626128Y-95019666D01*
X109578509Y-95067285D01*
X109483271Y-95114904D01*
X109245176Y-95114904D01*
X109149938Y-95067285D01*
X109102319Y-95019666D01*
X109054700Y-94924428D01*
X109054700Y-94733952D01*
X109102319Y-94638714D01*
X109149938Y-94591095D01*
X109245176Y-94543476D01*
G04 #@! TO.C,C17*
X115325224Y-93476142D02*
X115372843Y-93523761D01*
X115515700Y-93571380D01*
X115610938Y-93571380D01*
X115753795Y-93523761D01*
X115849033Y-93428523D01*
X115896652Y-93333285D01*
X115944271Y-93142809D01*
X115944271Y-92999952D01*
X115896652Y-92809476D01*
X115849033Y-92714238D01*
X115753795Y-92619000D01*
X115610938Y-92571380D01*
X115515700Y-92571380D01*
X115372843Y-92619000D01*
X115325224Y-92666619D01*
X114372843Y-93571380D02*
X114944271Y-93571380D01*
X114658557Y-93571380D02*
X114658557Y-92571380D01*
X114753795Y-92714238D01*
X114849033Y-92809476D01*
X114944271Y-92857095D01*
X114039509Y-92571380D02*
X113372843Y-92571380D01*
X113801414Y-93571380D01*
G04 #@! TO.C,C18*
X150980509Y-87622142D02*
X151028128Y-87574523D01*
X151075747Y-87431666D01*
X151075747Y-87336428D01*
X151028128Y-87193571D01*
X150932890Y-87098333D01*
X150837652Y-87050714D01*
X150647176Y-87003095D01*
X150504319Y-87003095D01*
X150313843Y-87050714D01*
X150218605Y-87098333D01*
X150123367Y-87193571D01*
X150075747Y-87336428D01*
X150075747Y-87431666D01*
X150123367Y-87574523D01*
X150170986Y-87622142D01*
X151075747Y-88574523D02*
X151075747Y-88003095D01*
X151075747Y-88288809D02*
X150075747Y-88288809D01*
X150218605Y-88193571D01*
X150313843Y-88098333D01*
X150361462Y-88003095D01*
X150504319Y-89145952D02*
X150456700Y-89050714D01*
X150409081Y-89003095D01*
X150313843Y-88955476D01*
X150266224Y-88955476D01*
X150170986Y-89003095D01*
X150123367Y-89050714D01*
X150075747Y-89145952D01*
X150075747Y-89336428D01*
X150123367Y-89431666D01*
X150170986Y-89479285D01*
X150266224Y-89526904D01*
X150313843Y-89526904D01*
X150409081Y-89479285D01*
X150456700Y-89431666D01*
X150504319Y-89336428D01*
X150504319Y-89145952D01*
X150551938Y-89050714D01*
X150599557Y-89003095D01*
X150694795Y-88955476D01*
X150885271Y-88955476D01*
X150980509Y-89003095D01*
X151028128Y-89050714D01*
X151075747Y-89145952D01*
X151075747Y-89336428D01*
X151028128Y-89431666D01*
X150980509Y-89479285D01*
X150885271Y-89526904D01*
X150694795Y-89526904D01*
X150599557Y-89479285D01*
X150551938Y-89431666D01*
X150504319Y-89336428D01*
G04 #@! TO.C,C19*
X145900509Y-87622142D02*
X145948128Y-87574523D01*
X145995747Y-87431666D01*
X145995747Y-87336428D01*
X145948128Y-87193571D01*
X145852890Y-87098333D01*
X145757652Y-87050714D01*
X145567176Y-87003095D01*
X145424319Y-87003095D01*
X145233843Y-87050714D01*
X145138605Y-87098333D01*
X145043367Y-87193571D01*
X144995747Y-87336428D01*
X144995747Y-87431666D01*
X145043367Y-87574523D01*
X145090986Y-87622142D01*
X145995747Y-88574523D02*
X145995747Y-88003095D01*
X145995747Y-88288809D02*
X144995747Y-88288809D01*
X145138605Y-88193571D01*
X145233843Y-88098333D01*
X145281462Y-88003095D01*
X145995747Y-89050714D02*
X145995747Y-89241190D01*
X145948128Y-89336428D01*
X145900509Y-89384047D01*
X145757652Y-89479285D01*
X145567176Y-89526904D01*
X145186224Y-89526904D01*
X145090986Y-89479285D01*
X145043367Y-89431666D01*
X144995747Y-89336428D01*
X144995747Y-89145952D01*
X145043367Y-89050714D01*
X145090986Y-89003095D01*
X145186224Y-88955476D01*
X145424319Y-88955476D01*
X145519557Y-89003095D01*
X145567176Y-89050714D01*
X145614795Y-89145952D01*
X145614795Y-89336428D01*
X145567176Y-89431666D01*
X145519557Y-89479285D01*
X145424319Y-89526904D01*
G04 #@! TO.C,U12*
X98994980Y-107550104D02*
X99804504Y-107550104D01*
X99899742Y-107597723D01*
X99947361Y-107645342D01*
X99994980Y-107740580D01*
X99994980Y-107931057D01*
X99947361Y-108026295D01*
X99899742Y-108073914D01*
X99804504Y-108121533D01*
X98994980Y-108121533D01*
X99994980Y-109121533D02*
X99994980Y-108550104D01*
X99994980Y-108835819D02*
X98994980Y-108835819D01*
X99137838Y-108740580D01*
X99233076Y-108645342D01*
X99280695Y-108550104D01*
X99090219Y-109502485D02*
X99042600Y-109550104D01*
X98994980Y-109645342D01*
X98994980Y-109883438D01*
X99042600Y-109978676D01*
X99090219Y-110026295D01*
X99185457Y-110073914D01*
X99280695Y-110073914D01*
X99423552Y-110026295D01*
X99994980Y-109454866D01*
X99994980Y-110073914D01*
G04 #@! TO.C,U7*
X105384504Y-79591380D02*
X105384504Y-80400904D01*
X105336885Y-80496142D01*
X105289266Y-80543761D01*
X105194028Y-80591380D01*
X105003552Y-80591380D01*
X104908314Y-80543761D01*
X104860695Y-80496142D01*
X104813076Y-80400904D01*
X104813076Y-79591380D01*
X104432123Y-79591380D02*
X103765457Y-79591380D01*
X104194028Y-80591380D01*
G04 #@! TO.C,U10*
X117548347Y-99676104D02*
X118357871Y-99676104D01*
X118453109Y-99723723D01*
X118500728Y-99771342D01*
X118548347Y-99866580D01*
X118548347Y-100057057D01*
X118500728Y-100152295D01*
X118453109Y-100199914D01*
X118357871Y-100247533D01*
X117548347Y-100247533D01*
X118548347Y-101247533D02*
X118548347Y-100676104D01*
X118548347Y-100961819D02*
X117548347Y-100961819D01*
X117691205Y-100866580D01*
X117786443Y-100771342D01*
X117834062Y-100676104D01*
X117548347Y-101866580D02*
X117548347Y-101961819D01*
X117595967Y-102057057D01*
X117643586Y-102104676D01*
X117738824Y-102152295D01*
X117929300Y-102199914D01*
X118167395Y-102199914D01*
X118357871Y-102152295D01*
X118453109Y-102104676D01*
X118500728Y-102057057D01*
X118548347Y-101961819D01*
X118548347Y-101866580D01*
X118500728Y-101771342D01*
X118453109Y-101723723D01*
X118357871Y-101676104D01*
X118167395Y-101628485D01*
X117929300Y-101628485D01*
X117738824Y-101676104D01*
X117643586Y-101723723D01*
X117595967Y-101771342D01*
X117548347Y-101866580D01*
G04 #@! TO.C,R9*
X130755747Y-115530333D02*
X130279557Y-115197000D01*
X130755747Y-114958904D02*
X129755747Y-114958904D01*
X129755747Y-115339857D01*
X129803367Y-115435095D01*
X129850986Y-115482714D01*
X129946224Y-115530333D01*
X130089081Y-115530333D01*
X130184319Y-115482714D01*
X130231938Y-115435095D01*
X130279557Y-115339857D01*
X130279557Y-114958904D01*
X130755747Y-116006523D02*
X130755747Y-116197000D01*
X130708128Y-116292238D01*
X130660509Y-116339857D01*
X130517652Y-116435095D01*
X130327176Y-116482714D01*
X129946224Y-116482714D01*
X129850986Y-116435095D01*
X129803367Y-116387476D01*
X129755747Y-116292238D01*
X129755747Y-116101761D01*
X129803367Y-116006523D01*
X129850986Y-115958904D01*
X129946224Y-115911285D01*
X130184319Y-115911285D01*
X130279557Y-115958904D01*
X130327176Y-116006523D01*
X130374795Y-116101761D01*
X130374795Y-116292238D01*
X130327176Y-116387476D01*
X130279557Y-116435095D01*
X130184319Y-116482714D01*
G04 #@! TO.C,R3*
X124120033Y-108783380D02*
X124453367Y-108307190D01*
X124691462Y-108783380D02*
X124691462Y-107783380D01*
X124310509Y-107783380D01*
X124215271Y-107831000D01*
X124167652Y-107878619D01*
X124120033Y-107973857D01*
X124120033Y-108116714D01*
X124167652Y-108211952D01*
X124215271Y-108259571D01*
X124310509Y-108307190D01*
X124691462Y-108307190D01*
X123786700Y-107783380D02*
X123167652Y-107783380D01*
X123500986Y-108164333D01*
X123358128Y-108164333D01*
X123262890Y-108211952D01*
X123215271Y-108259571D01*
X123167652Y-108354809D01*
X123167652Y-108592904D01*
X123215271Y-108688142D01*
X123262890Y-108735761D01*
X123358128Y-108783380D01*
X123643843Y-108783380D01*
X123739081Y-108735761D01*
X123786700Y-108688142D01*
G04 #@! TO.C,R2*
X124120033Y-115133380D02*
X124453367Y-114657190D01*
X124691462Y-115133380D02*
X124691462Y-114133380D01*
X124310509Y-114133380D01*
X124215271Y-114181000D01*
X124167652Y-114228619D01*
X124120033Y-114323857D01*
X124120033Y-114466714D01*
X124167652Y-114561952D01*
X124215271Y-114609571D01*
X124310509Y-114657190D01*
X124691462Y-114657190D01*
X123739081Y-114228619D02*
X123691462Y-114181000D01*
X123596224Y-114133380D01*
X123358128Y-114133380D01*
X123262890Y-114181000D01*
X123215271Y-114228619D01*
X123167652Y-114323857D01*
X123167652Y-114419095D01*
X123215271Y-114561952D01*
X123786700Y-115133380D01*
X123167652Y-115133380D01*
G04 #@! TO.C,R11*
X136089747Y-105656142D02*
X135613557Y-105322809D01*
X136089747Y-105084714D02*
X135089747Y-105084714D01*
X135089747Y-105465666D01*
X135137367Y-105560904D01*
X135184986Y-105608523D01*
X135280224Y-105656142D01*
X135423081Y-105656142D01*
X135518319Y-105608523D01*
X135565938Y-105560904D01*
X135613557Y-105465666D01*
X135613557Y-105084714D01*
X136089747Y-106608523D02*
X136089747Y-106037095D01*
X136089747Y-106322809D02*
X135089747Y-106322809D01*
X135232605Y-106227571D01*
X135327843Y-106132333D01*
X135375462Y-106037095D01*
X136089747Y-107560904D02*
X136089747Y-106989476D01*
X136089747Y-107275190D02*
X135089747Y-107275190D01*
X135232605Y-107179952D01*
X135327843Y-107084714D01*
X135375462Y-106989476D01*
G04 #@! TO.C,R10*
X133371947Y-115562142D02*
X132895757Y-115228809D01*
X133371947Y-114990714D02*
X132371947Y-114990714D01*
X132371947Y-115371666D01*
X132419567Y-115466904D01*
X132467186Y-115514523D01*
X132562424Y-115562142D01*
X132705281Y-115562142D01*
X132800519Y-115514523D01*
X132848138Y-115466904D01*
X132895757Y-115371666D01*
X132895757Y-114990714D01*
X133371947Y-116514523D02*
X133371947Y-115943095D01*
X133371947Y-116228809D02*
X132371947Y-116228809D01*
X132514805Y-116133571D01*
X132610043Y-116038333D01*
X132657662Y-115943095D01*
X132371947Y-117133571D02*
X132371947Y-117228809D01*
X132419567Y-117324047D01*
X132467186Y-117371666D01*
X132562424Y-117419285D01*
X132752900Y-117466904D01*
X132990995Y-117466904D01*
X133181471Y-117419285D01*
X133276709Y-117371666D01*
X133324328Y-117324047D01*
X133371947Y-117228809D01*
X133371947Y-117133571D01*
X133324328Y-117038333D01*
X133276709Y-116990714D01*
X133181471Y-116943095D01*
X132990995Y-116895476D01*
X132752900Y-116895476D01*
X132562424Y-116943095D01*
X132467186Y-116990714D01*
X132419567Y-117038333D01*
X132371947Y-117133571D01*
G04 #@! TO.C,R25*
X111134224Y-97861380D02*
X111467557Y-97385190D01*
X111705652Y-97861380D02*
X111705652Y-96861380D01*
X111324700Y-96861380D01*
X111229462Y-96909000D01*
X111181843Y-96956619D01*
X111134224Y-97051857D01*
X111134224Y-97194714D01*
X111181843Y-97289952D01*
X111229462Y-97337571D01*
X111324700Y-97385190D01*
X111705652Y-97385190D01*
X110753271Y-96956619D02*
X110705652Y-96909000D01*
X110610414Y-96861380D01*
X110372319Y-96861380D01*
X110277081Y-96909000D01*
X110229462Y-96956619D01*
X110181843Y-97051857D01*
X110181843Y-97147095D01*
X110229462Y-97289952D01*
X110800890Y-97861380D01*
X110181843Y-97861380D01*
X109277081Y-96861380D02*
X109753271Y-96861380D01*
X109800890Y-97337571D01*
X109753271Y-97289952D01*
X109658033Y-97242333D01*
X109419938Y-97242333D01*
X109324700Y-97289952D01*
X109277081Y-97337571D01*
X109229462Y-97432809D01*
X109229462Y-97670904D01*
X109277081Y-97766142D01*
X109324700Y-97813761D01*
X109419938Y-97861380D01*
X109658033Y-97861380D01*
X109753271Y-97813761D01*
X109800890Y-97766142D01*
G04 #@! TO.C,R26*
X144408224Y-83891380D02*
X144741557Y-83415190D01*
X144979652Y-83891380D02*
X144979652Y-82891380D01*
X144598700Y-82891380D01*
X144503462Y-82939000D01*
X144455843Y-82986619D01*
X144408224Y-83081857D01*
X144408224Y-83224714D01*
X144455843Y-83319952D01*
X144503462Y-83367571D01*
X144598700Y-83415190D01*
X144979652Y-83415190D01*
X144027271Y-82986619D02*
X143979652Y-82939000D01*
X143884414Y-82891380D01*
X143646319Y-82891380D01*
X143551081Y-82939000D01*
X143503462Y-82986619D01*
X143455843Y-83081857D01*
X143455843Y-83177095D01*
X143503462Y-83319952D01*
X144074890Y-83891380D01*
X143455843Y-83891380D01*
X142598700Y-82891380D02*
X142789176Y-82891380D01*
X142884414Y-82939000D01*
X142932033Y-82986619D01*
X143027271Y-83129476D01*
X143074890Y-83319952D01*
X143074890Y-83700904D01*
X143027271Y-83796142D01*
X142979652Y-83843761D01*
X142884414Y-83891380D01*
X142693938Y-83891380D01*
X142598700Y-83843761D01*
X142551081Y-83796142D01*
X142503462Y-83700904D01*
X142503462Y-83462809D01*
X142551081Y-83367571D01*
X142598700Y-83319952D01*
X142693938Y-83272333D01*
X142884414Y-83272333D01*
X142979652Y-83319952D01*
X143027271Y-83367571D01*
X143074890Y-83462809D01*
G04 #@! TO.C,R24*
X117992224Y-116149380D02*
X118325557Y-115673190D01*
X118563652Y-116149380D02*
X118563652Y-115149380D01*
X118182700Y-115149380D01*
X118087462Y-115197000D01*
X118039843Y-115244619D01*
X117992224Y-115339857D01*
X117992224Y-115482714D01*
X118039843Y-115577952D01*
X118087462Y-115625571D01*
X118182700Y-115673190D01*
X118563652Y-115673190D01*
X117611271Y-115244619D02*
X117563652Y-115197000D01*
X117468414Y-115149380D01*
X117230319Y-115149380D01*
X117135081Y-115197000D01*
X117087462Y-115244619D01*
X117039843Y-115339857D01*
X117039843Y-115435095D01*
X117087462Y-115577952D01*
X117658890Y-116149380D01*
X117039843Y-116149380D01*
X116182700Y-115482714D02*
X116182700Y-116149380D01*
X116420795Y-115101761D02*
X116658890Y-115816047D01*
X116039843Y-115816047D01*
G04 #@! TO.C,R21*
X94903624Y-87167980D02*
X95236957Y-86691790D01*
X95475052Y-87167980D02*
X95475052Y-86167980D01*
X95094100Y-86167980D01*
X94998862Y-86215600D01*
X94951243Y-86263219D01*
X94903624Y-86358457D01*
X94903624Y-86501314D01*
X94951243Y-86596552D01*
X94998862Y-86644171D01*
X95094100Y-86691790D01*
X95475052Y-86691790D01*
X94522671Y-86263219D02*
X94475052Y-86215600D01*
X94379814Y-86167980D01*
X94141719Y-86167980D01*
X94046481Y-86215600D01*
X93998862Y-86263219D01*
X93951243Y-86358457D01*
X93951243Y-86453695D01*
X93998862Y-86596552D01*
X94570290Y-87167980D01*
X93951243Y-87167980D01*
X92998862Y-87167980D02*
X93570290Y-87167980D01*
X93284576Y-87167980D02*
X93284576Y-86167980D01*
X93379814Y-86310838D01*
X93475052Y-86406076D01*
X93570290Y-86453695D01*
G04 #@! TO.C,R20*
X95030624Y-80284580D02*
X95363957Y-79808390D01*
X95602052Y-80284580D02*
X95602052Y-79284580D01*
X95221100Y-79284580D01*
X95125862Y-79332200D01*
X95078243Y-79379819D01*
X95030624Y-79475057D01*
X95030624Y-79617914D01*
X95078243Y-79713152D01*
X95125862Y-79760771D01*
X95221100Y-79808390D01*
X95602052Y-79808390D01*
X94649671Y-79379819D02*
X94602052Y-79332200D01*
X94506814Y-79284580D01*
X94268719Y-79284580D01*
X94173481Y-79332200D01*
X94125862Y-79379819D01*
X94078243Y-79475057D01*
X94078243Y-79570295D01*
X94125862Y-79713152D01*
X94697290Y-80284580D01*
X94078243Y-80284580D01*
X93459195Y-79284580D02*
X93363957Y-79284580D01*
X93268719Y-79332200D01*
X93221100Y-79379819D01*
X93173481Y-79475057D01*
X93125862Y-79665533D01*
X93125862Y-79903628D01*
X93173481Y-80094104D01*
X93221100Y-80189342D01*
X93268719Y-80236961D01*
X93363957Y-80284580D01*
X93459195Y-80284580D01*
X93554433Y-80236961D01*
X93602052Y-80189342D01*
X93649671Y-80094104D01*
X93697290Y-79903628D01*
X93697290Y-79665533D01*
X93649671Y-79475057D01*
X93602052Y-79379819D01*
X93554433Y-79332200D01*
X93459195Y-79284580D01*
G04 #@! TO.C,R19*
X114474347Y-81500742D02*
X113998157Y-81167409D01*
X114474347Y-80929314D02*
X113474347Y-80929314D01*
X113474347Y-81310266D01*
X113521967Y-81405504D01*
X113569586Y-81453123D01*
X113664824Y-81500742D01*
X113807681Y-81500742D01*
X113902919Y-81453123D01*
X113950538Y-81405504D01*
X113998157Y-81310266D01*
X113998157Y-80929314D01*
X114474347Y-82453123D02*
X114474347Y-81881695D01*
X114474347Y-82167409D02*
X113474347Y-82167409D01*
X113617205Y-82072171D01*
X113712443Y-81976933D01*
X113760062Y-81881695D01*
X114474347Y-82929314D02*
X114474347Y-83119790D01*
X114426728Y-83215028D01*
X114379109Y-83262647D01*
X114236252Y-83357885D01*
X114045776Y-83405504D01*
X113664824Y-83405504D01*
X113569586Y-83357885D01*
X113521967Y-83310266D01*
X113474347Y-83215028D01*
X113474347Y-83024552D01*
X113521967Y-82929314D01*
X113569586Y-82881695D01*
X113664824Y-82834076D01*
X113902919Y-82834076D01*
X113998157Y-82881695D01*
X114045776Y-82929314D01*
X114093395Y-83024552D01*
X114093395Y-83215028D01*
X114045776Y-83310266D01*
X113998157Y-83357885D01*
X113902919Y-83405504D01*
G04 #@! TO.C,R18*
X123897747Y-91279742D02*
X123421557Y-90946409D01*
X123897747Y-90708314D02*
X122897747Y-90708314D01*
X122897747Y-91089266D01*
X122945367Y-91184504D01*
X122992986Y-91232123D01*
X123088224Y-91279742D01*
X123231081Y-91279742D01*
X123326319Y-91232123D01*
X123373938Y-91184504D01*
X123421557Y-91089266D01*
X123421557Y-90708314D01*
X123897747Y-92232123D02*
X123897747Y-91660695D01*
X123897747Y-91946409D02*
X122897747Y-91946409D01*
X123040605Y-91851171D01*
X123135843Y-91755933D01*
X123183462Y-91660695D01*
X123326319Y-92803552D02*
X123278700Y-92708314D01*
X123231081Y-92660695D01*
X123135843Y-92613076D01*
X123088224Y-92613076D01*
X122992986Y-92660695D01*
X122945367Y-92708314D01*
X122897747Y-92803552D01*
X122897747Y-92994028D01*
X122945367Y-93089266D01*
X122992986Y-93136885D01*
X123088224Y-93184504D01*
X123135843Y-93184504D01*
X123231081Y-93136885D01*
X123278700Y-93089266D01*
X123326319Y-92994028D01*
X123326319Y-92803552D01*
X123373938Y-92708314D01*
X123421557Y-92660695D01*
X123516795Y-92613076D01*
X123707271Y-92613076D01*
X123802509Y-92660695D01*
X123850128Y-92708314D01*
X123897747Y-92803552D01*
X123897747Y-92994028D01*
X123850128Y-93089266D01*
X123802509Y-93136885D01*
X123707271Y-93184504D01*
X123516795Y-93184504D01*
X123421557Y-93136885D01*
X123373938Y-93089266D01*
X123326319Y-92994028D01*
G04 #@! TO.C,R14*
X148645757Y-113559486D02*
X148979090Y-113083296D01*
X149217185Y-113559486D02*
X149217185Y-112559486D01*
X148836233Y-112559486D01*
X148740995Y-112607106D01*
X148693376Y-112654725D01*
X148645757Y-112749963D01*
X148645757Y-112892820D01*
X148693376Y-112988058D01*
X148740995Y-113035677D01*
X148836233Y-113083296D01*
X149217185Y-113083296D01*
X147693376Y-113559486D02*
X148264804Y-113559486D01*
X147979090Y-113559486D02*
X147979090Y-112559486D01*
X148074328Y-112702344D01*
X148169566Y-112797582D01*
X148264804Y-112845201D01*
X146836233Y-112892820D02*
X146836233Y-113559486D01*
X147074328Y-112511867D02*
X147312423Y-113226153D01*
X146693376Y-113226153D01*
G04 #@! TO.C,R13*
X148645757Y-116149380D02*
X148979090Y-115673190D01*
X149217185Y-116149380D02*
X149217185Y-115149380D01*
X148836233Y-115149380D01*
X148740995Y-115197000D01*
X148693376Y-115244619D01*
X148645757Y-115339857D01*
X148645757Y-115482714D01*
X148693376Y-115577952D01*
X148740995Y-115625571D01*
X148836233Y-115673190D01*
X149217185Y-115673190D01*
X147693376Y-116149380D02*
X148264804Y-116149380D01*
X147979090Y-116149380D02*
X147979090Y-115149380D01*
X148074328Y-115292238D01*
X148169566Y-115387476D01*
X148264804Y-115435095D01*
X147360042Y-115149380D02*
X146740995Y-115149380D01*
X147074328Y-115530333D01*
X146931471Y-115530333D01*
X146836233Y-115577952D01*
X146788614Y-115625571D01*
X146740995Y-115720809D01*
X146740995Y-115958904D01*
X146788614Y-116054142D01*
X146836233Y-116101761D01*
X146931471Y-116149380D01*
X147217185Y-116149380D01*
X147312423Y-116101761D01*
X147360042Y-116054142D01*
G04 #@! TO.C,R12*
X138832947Y-105656142D02*
X138356757Y-105322809D01*
X138832947Y-105084714D02*
X137832947Y-105084714D01*
X137832947Y-105465666D01*
X137880567Y-105560904D01*
X137928186Y-105608523D01*
X138023424Y-105656142D01*
X138166281Y-105656142D01*
X138261519Y-105608523D01*
X138309138Y-105560904D01*
X138356757Y-105465666D01*
X138356757Y-105084714D01*
X138832947Y-106608523D02*
X138832947Y-106037095D01*
X138832947Y-106322809D02*
X137832947Y-106322809D01*
X137975805Y-106227571D01*
X138071043Y-106132333D01*
X138118662Y-106037095D01*
X137928186Y-106989476D02*
X137880567Y-107037095D01*
X137832947Y-107132333D01*
X137832947Y-107370428D01*
X137880567Y-107465666D01*
X137928186Y-107513285D01*
X138023424Y-107560904D01*
X138118662Y-107560904D01*
X138261519Y-107513285D01*
X138832947Y-106941857D01*
X138832947Y-107560904D01*
G04 #@! TO.C,U8*
X116801747Y-108077095D02*
X117611271Y-108077095D01*
X117706509Y-108124714D01*
X117754128Y-108172333D01*
X117801747Y-108267571D01*
X117801747Y-108458047D01*
X117754128Y-108553285D01*
X117706509Y-108600904D01*
X117611271Y-108648523D01*
X116801747Y-108648523D01*
X117230319Y-109267571D02*
X117182700Y-109172333D01*
X117135081Y-109124714D01*
X117039843Y-109077095D01*
X116992224Y-109077095D01*
X116896986Y-109124714D01*
X116849367Y-109172333D01*
X116801747Y-109267571D01*
X116801747Y-109458047D01*
X116849367Y-109553285D01*
X116896986Y-109600904D01*
X116992224Y-109648523D01*
X117039843Y-109648523D01*
X117135081Y-109600904D01*
X117182700Y-109553285D01*
X117230319Y-109458047D01*
X117230319Y-109267571D01*
X117277938Y-109172333D01*
X117325557Y-109124714D01*
X117420795Y-109077095D01*
X117611271Y-109077095D01*
X117706509Y-109124714D01*
X117754128Y-109172333D01*
X117801747Y-109267571D01*
X117801747Y-109458047D01*
X117754128Y-109553285D01*
X117706509Y-109600904D01*
X117611271Y-109648523D01*
X117420795Y-109648523D01*
X117325557Y-109600904D01*
X117277938Y-109553285D01*
X117230319Y-109458047D01*
G04 #@! TO.C,D14*
X136597747Y-90860714D02*
X135597747Y-90860714D01*
X135597747Y-91098809D01*
X135645367Y-91241666D01*
X135740605Y-91336904D01*
X135835843Y-91384523D01*
X136026319Y-91432142D01*
X136169176Y-91432142D01*
X136359652Y-91384523D01*
X136454890Y-91336904D01*
X136550128Y-91241666D01*
X136597747Y-91098809D01*
X136597747Y-90860714D01*
X136597747Y-92384523D02*
X136597747Y-91813095D01*
X136597747Y-92098809D02*
X135597747Y-92098809D01*
X135740605Y-92003571D01*
X135835843Y-91908333D01*
X135883462Y-91813095D01*
X135931081Y-93241666D02*
X136597747Y-93241666D01*
X135550128Y-93003571D02*
X136264414Y-92765476D01*
X136264414Y-93384523D01*
G04 #@! TO.C,D13*
X141677747Y-99718904D02*
X140677747Y-99718904D01*
X140677747Y-99956999D01*
X140725367Y-100099856D01*
X140820605Y-100195094D01*
X140915843Y-100242713D01*
X141106319Y-100290332D01*
X141249176Y-100290332D01*
X141439652Y-100242713D01*
X141534890Y-100195094D01*
X141630128Y-100099856D01*
X141677747Y-99956999D01*
X141677747Y-99718904D01*
X141677747Y-101242713D02*
X141677747Y-100671285D01*
X141677747Y-100956999D02*
X140677747Y-100956999D01*
X140820605Y-100861761D01*
X140915843Y-100766523D01*
X140963462Y-100671285D01*
X140677747Y-101576047D02*
X140677747Y-102195094D01*
X141058700Y-101861761D01*
X141058700Y-102004618D01*
X141106319Y-102099856D01*
X141153938Y-102147475D01*
X141249176Y-102195094D01*
X141487271Y-102195094D01*
X141582509Y-102147475D01*
X141630128Y-102099856D01*
X141677747Y-102004618D01*
X141677747Y-101718904D01*
X141630128Y-101623666D01*
X141582509Y-101576047D01*
G04 #@! TO.C,D12*
X143963747Y-87050714D02*
X142963747Y-87050714D01*
X142963747Y-87288809D01*
X143011367Y-87431666D01*
X143106605Y-87526904D01*
X143201843Y-87574523D01*
X143392319Y-87622142D01*
X143535176Y-87622142D01*
X143725652Y-87574523D01*
X143820890Y-87526904D01*
X143916128Y-87431666D01*
X143963747Y-87288809D01*
X143963747Y-87050714D01*
X143963747Y-88574523D02*
X143963747Y-88003095D01*
X143963747Y-88288809D02*
X142963747Y-88288809D01*
X143106605Y-88193571D01*
X143201843Y-88098333D01*
X143249462Y-88003095D01*
X143058986Y-88955476D02*
X143011367Y-89003095D01*
X142963747Y-89098333D01*
X142963747Y-89336428D01*
X143011367Y-89431666D01*
X143058986Y-89479285D01*
X143154224Y-89526904D01*
X143249462Y-89526904D01*
X143392319Y-89479285D01*
X143963747Y-88907857D01*
X143963747Y-89526904D01*
G04 #@! TO.C,D11*
X144979747Y-99718904D02*
X143979747Y-99718904D01*
X143979747Y-99956999D01*
X144027367Y-100099856D01*
X144122605Y-100195094D01*
X144217843Y-100242713D01*
X144408319Y-100290332D01*
X144551176Y-100290332D01*
X144741652Y-100242713D01*
X144836890Y-100195094D01*
X144932128Y-100099856D01*
X144979747Y-99956999D01*
X144979747Y-99718904D01*
X144979747Y-101242713D02*
X144979747Y-100671285D01*
X144979747Y-100956999D02*
X143979747Y-100956999D01*
X144122605Y-100861761D01*
X144217843Y-100766523D01*
X144265462Y-100671285D01*
X144979747Y-102195094D02*
X144979747Y-101623666D01*
X144979747Y-101909380D02*
X143979747Y-101909380D01*
X144122605Y-101814142D01*
X144217843Y-101718904D01*
X144265462Y-101623666D01*
G04 #@! TO.C,D10*
X148789747Y-87050714D02*
X147789747Y-87050714D01*
X147789747Y-87288809D01*
X147837367Y-87431666D01*
X147932605Y-87526904D01*
X148027843Y-87574523D01*
X148218319Y-87622142D01*
X148361176Y-87622142D01*
X148551652Y-87574523D01*
X148646890Y-87526904D01*
X148742128Y-87431666D01*
X148789747Y-87288809D01*
X148789747Y-87050714D01*
X148789747Y-88574523D02*
X148789747Y-88003095D01*
X148789747Y-88288809D02*
X147789747Y-88288809D01*
X147932605Y-88193571D01*
X148027843Y-88098333D01*
X148075462Y-88003095D01*
X147789747Y-89193571D02*
X147789747Y-89288809D01*
X147837367Y-89384047D01*
X147884986Y-89431666D01*
X147980224Y-89479285D01*
X148170700Y-89526904D01*
X148408795Y-89526904D01*
X148599271Y-89479285D01*
X148694509Y-89431666D01*
X148742128Y-89384047D01*
X148789747Y-89288809D01*
X148789747Y-89193571D01*
X148742128Y-89098333D01*
X148694509Y-89050714D01*
X148599271Y-89003095D01*
X148408795Y-88955476D01*
X148170700Y-88955476D01*
X147980224Y-89003095D01*
X147884986Y-89050714D01*
X147837367Y-89098333D01*
X147789747Y-89193571D01*
G04 #@! TO.C,D9*
X148535747Y-99718904D02*
X147535747Y-99718904D01*
X147535747Y-99957000D01*
X147583367Y-100099857D01*
X147678605Y-100195095D01*
X147773843Y-100242714D01*
X147964319Y-100290333D01*
X148107176Y-100290333D01*
X148297652Y-100242714D01*
X148392890Y-100195095D01*
X148488128Y-100099857D01*
X148535747Y-99957000D01*
X148535747Y-99718904D01*
X148535747Y-100766523D02*
X148535747Y-100957000D01*
X148488128Y-101052238D01*
X148440509Y-101099857D01*
X148297652Y-101195095D01*
X148107176Y-101242714D01*
X147726224Y-101242714D01*
X147630986Y-101195095D01*
X147583367Y-101147476D01*
X147535747Y-101052238D01*
X147535747Y-100861761D01*
X147583367Y-100766523D01*
X147630986Y-100718904D01*
X147726224Y-100671285D01*
X147964319Y-100671285D01*
X148059557Y-100718904D01*
X148107176Y-100766523D01*
X148154795Y-100861761D01*
X148154795Y-101052238D01*
X148107176Y-101147476D01*
X148059557Y-101195095D01*
X147964319Y-101242714D01*
G04 #@! TO.C,U11*
X121119747Y-102647904D02*
X121929271Y-102647904D01*
X122024509Y-102695523D01*
X122072128Y-102743142D01*
X122119747Y-102838380D01*
X122119747Y-103028857D01*
X122072128Y-103124095D01*
X122024509Y-103171714D01*
X121929271Y-103219333D01*
X121119747Y-103219333D01*
X122119747Y-104219333D02*
X122119747Y-103647904D01*
X122119747Y-103933619D02*
X121119747Y-103933619D01*
X121262605Y-103838380D01*
X121357843Y-103743142D01*
X121405462Y-103647904D01*
X122119747Y-105171714D02*
X122119747Y-104600285D01*
X122119747Y-104886000D02*
X121119747Y-104886000D01*
X121262605Y-104790761D01*
X121357843Y-104695523D01*
X121405462Y-104600285D01*
G04 #@! TD*
M02*
