G04 #@! TF.GenerationSoftware,KiCad,Pcbnew,(6.0.0-rc1-dev-159-g1e43773)*
G04 #@! TF.CreationDate,2018-07-25T22:10:03-05:00*
G04 #@! TF.ProjectId,bbb_alien_harness,6262625F616C69656E5F6861726E6573,rev?*
G04 #@! TF.SameCoordinates,Original*
G04 #@! TF.FileFunction,Soldermask,Bot*
G04 #@! TF.FilePolarity,Negative*
%FSLAX46Y46*%
G04 Gerber Fmt 4.6, Leading zero omitted, Abs format (unit mm)*
G04 Created by KiCad (PCBNEW (6.0.0-rc1-dev-159-g1e43773)) date Wed Jul 25 22:10:03 2018*
%MOMM*%
%LPD*%
G01*
G04 APERTURE LIST*
%ADD10R,1.801600X2.101600*%
%ADD11R,0.751600X1.661600*%
%ADD12R,3.301600X0.901600*%
%ADD13C,1.601600*%
%ADD14R,1.301600X0.951600*%
%ADD15R,1.801600X1.801600*%
%ADD16O,1.801600X1.801600*%
%ADD17C,2.601600*%
%ADD18R,2.601600X2.601600*%
%ADD19R,0.701600X1.651600*%
%ADD20R,2.101600X1.801600*%
%ADD21R,1.701600X0.861600*%
%ADD22R,3.601600X1.701600*%
%ADD23R,1.601600X1.351600*%
%ADD24R,1.351600X1.601600*%
%ADD25R,1.881600X2.101600*%
%ADD26R,1.306600X1.651600*%
%ADD27R,2.011600X0.711600*%
%ADD28R,0.551600X1.551600*%
%ADD29R,0.508000X0.914400*%
G04 APERTURE END LIST*
D10*
G04 #@! TO.C,R29*
X138050367Y-95790000D03*
X138050367Y-99790000D03*
G04 #@! TD*
D11*
G04 #@! TO.C,U9*
X104843323Y-93970443D03*
X103893323Y-93970443D03*
X102943323Y-93970443D03*
X102943323Y-91270443D03*
X104843323Y-91270443D03*
G04 #@! TD*
D12*
G04 #@! TO.C,R23*
X99956323Y-93420443D03*
X99956323Y-91820443D03*
G04 #@! TD*
D13*
G04 #@! TO.C,MP2*
X117552567Y-79883000D03*
G04 #@! TD*
G04 #@! TO.C,MP3*
X118289167Y-118897400D03*
G04 #@! TD*
D10*
G04 #@! TO.C,R27*
X134494367Y-84773000D03*
X134494367Y-88773000D03*
G04 #@! TD*
D14*
G04 #@! TO.C,D4*
X81154367Y-112523000D03*
X81154367Y-109473000D03*
G04 #@! TD*
G04 #@! TO.C,D5*
X84964367Y-81660000D03*
X84964367Y-84710000D03*
G04 #@! TD*
D15*
G04 #@! TO.C,P4*
X95885000Y-125095000D03*
D16*
X95885000Y-122555000D03*
X98425000Y-125095000D03*
X98425000Y-122555000D03*
X100965000Y-125095000D03*
X100965000Y-122555000D03*
X103505000Y-125095000D03*
X103505000Y-122555000D03*
X106045000Y-125095000D03*
X106045000Y-122555000D03*
X108585000Y-125095000D03*
X108585000Y-122555000D03*
X111125000Y-125095000D03*
X111125000Y-122555000D03*
X113665000Y-125095000D03*
X113665000Y-122555000D03*
X116205000Y-125095000D03*
X116205000Y-122555000D03*
X118745000Y-125095000D03*
X118745000Y-122555000D03*
X121285000Y-125095000D03*
X121285000Y-122555000D03*
X123825000Y-125095000D03*
X123825000Y-122555000D03*
X126365000Y-125095000D03*
X126365000Y-122555000D03*
X128905000Y-125095000D03*
X128905000Y-122555000D03*
X131445000Y-125095000D03*
X131445000Y-122555000D03*
X133985000Y-125095000D03*
X133985000Y-122555000D03*
X136525000Y-125095000D03*
X136525000Y-122555000D03*
X139065000Y-125095000D03*
X139065000Y-122555000D03*
X141605000Y-125095000D03*
X141605000Y-122555000D03*
X144145000Y-125095000D03*
X144145000Y-122555000D03*
X146685000Y-125095000D03*
X146685000Y-122555000D03*
X149225000Y-125095000D03*
X149225000Y-122555000D03*
X151765000Y-125095000D03*
X151765000Y-122555000D03*
G04 #@! TD*
G04 #@! TO.C,P3*
X151765000Y-74295000D03*
X151765000Y-76835000D03*
X149225000Y-74295000D03*
X149225000Y-76835000D03*
X146685000Y-74295000D03*
X146685000Y-76835000D03*
X144145000Y-74295000D03*
X144145000Y-76835000D03*
X141605000Y-74295000D03*
X141605000Y-76835000D03*
X139065000Y-74295000D03*
X139065000Y-76835000D03*
X136525000Y-74295000D03*
X136525000Y-76835000D03*
X133985000Y-74295000D03*
X133985000Y-76835000D03*
X131445000Y-74295000D03*
X131445000Y-76835000D03*
X128905000Y-74295000D03*
X128905000Y-76835000D03*
X126365000Y-74295000D03*
X126365000Y-76835000D03*
X123825000Y-74295000D03*
X123825000Y-76835000D03*
X121285000Y-74295000D03*
X121285000Y-76835000D03*
X118745000Y-74295000D03*
X118745000Y-76835000D03*
X116205000Y-74295000D03*
X116205000Y-76835000D03*
X113665000Y-74295000D03*
X113665000Y-76835000D03*
X111125000Y-74295000D03*
X111125000Y-76835000D03*
X108585000Y-74295000D03*
X108585000Y-76835000D03*
X106045000Y-74295000D03*
X106045000Y-76835000D03*
X103505000Y-74295000D03*
X103505000Y-76835000D03*
X100965000Y-74295000D03*
X100965000Y-76835000D03*
X98425000Y-74295000D03*
X98425000Y-76835000D03*
X95885000Y-74295000D03*
D15*
X95885000Y-76835000D03*
G04 #@! TD*
D17*
G04 #@! TO.C,PWR1*
X84175600Y-118825000D03*
D18*
X84175600Y-123825000D03*
G04 #@! TD*
G04 #@! TO.C,P2*
X88493600Y-85725000D03*
D17*
X88493600Y-80725000D03*
G04 #@! TD*
G04 #@! TO.C,P1*
X84175600Y-108665000D03*
D18*
X84175600Y-113665000D03*
G04 #@! TD*
D13*
G04 #@! TO.C,MP4*
X148464367Y-111201200D03*
G04 #@! TD*
D12*
G04 #@! TO.C,R22*
X110820758Y-109574300D03*
X110820758Y-107974300D03*
G04 #@! TD*
D19*
G04 #@! TO.C,U5*
X141149167Y-110294400D03*
X142419167Y-110294400D03*
X143689167Y-110294400D03*
X144959167Y-110294400D03*
X144959167Y-104894400D03*
X143689167Y-104894400D03*
X142419167Y-104894400D03*
X141149167Y-104894400D03*
G04 #@! TD*
D20*
G04 #@! TO.C,R28*
X107614567Y-99898200D03*
X103614567Y-99898200D03*
G04 #@! TD*
D21*
G04 #@! TO.C,S1*
X149226367Y-104394000D03*
X156846367Y-108204000D03*
X149226367Y-105664000D03*
X156846367Y-106934000D03*
X149226367Y-106934000D03*
X156846367Y-105664000D03*
X149226367Y-108204000D03*
X156846367Y-104394000D03*
G04 #@! TD*
D13*
G04 #@! TO.C,MP1*
X110161167Y-118211600D03*
G04 #@! TD*
D22*
G04 #@! TO.C,C14*
X111017167Y-89001600D03*
X116417167Y-89001600D03*
G04 #@! TD*
D23*
G04 #@! TO.C,C7*
X138284367Y-115824000D03*
X135784367Y-115824000D03*
G04 #@! TD*
D24*
G04 #@! TO.C,C13*
X107062367Y-90277000D03*
X107062367Y-87777000D03*
G04 #@! TD*
G04 #@! TO.C,C21*
X140082367Y-93186658D03*
X140082367Y-90686658D03*
G04 #@! TD*
G04 #@! TO.C,C15*
X118949567Y-110038200D03*
X118949567Y-107538200D03*
G04 #@! TD*
G04 #@! TO.C,C16*
X107011567Y-95026800D03*
X107011567Y-92526800D03*
G04 #@! TD*
D23*
G04 #@! TO.C,C17*
X113432367Y-94869000D03*
X115932367Y-94869000D03*
G04 #@! TD*
D24*
G04 #@! TO.C,C18*
X150623367Y-93325000D03*
X150623367Y-90825000D03*
G04 #@! TD*
G04 #@! TO.C,C19*
X145416367Y-90678000D03*
X145416367Y-93178000D03*
G04 #@! TD*
D25*
G04 #@! TO.C,U12*
X101904800Y-113553200D03*
X106984800Y-104023200D03*
X104444800Y-113553200D03*
X104444800Y-104023200D03*
X106984800Y-113553200D03*
X101904800Y-104023200D03*
G04 #@! TD*
D26*
G04 #@! TO.C,U7*
X105225100Y-82664000D03*
X105225100Y-84214000D03*
X104020100Y-82664000D03*
X104020100Y-84214000D03*
D27*
X101842600Y-81534000D03*
X101842600Y-82804000D03*
X101842600Y-84074000D03*
X101842600Y-85344000D03*
X107402600Y-85344000D03*
X107402600Y-84074000D03*
X107402600Y-82804000D03*
X107402600Y-81534000D03*
G04 #@! TD*
D28*
G04 #@! TO.C,U10*
X116520967Y-97964200D03*
X115870967Y-97964200D03*
X115220967Y-97964200D03*
X114570967Y-97964200D03*
X114570967Y-103864200D03*
X115220967Y-103864200D03*
X115870967Y-103864200D03*
X116520967Y-103864200D03*
G04 #@! TD*
D10*
G04 #@! TO.C,R9*
X130303367Y-109125000D03*
X130303367Y-113125000D03*
G04 #@! TD*
D20*
G04 #@! TO.C,R3*
X121953367Y-110236000D03*
X125953367Y-110236000D03*
G04 #@! TD*
G04 #@! TO.C,R2*
X121953367Y-112649000D03*
X125953367Y-112649000D03*
G04 #@! TD*
D10*
G04 #@! TO.C,R11*
X135662767Y-109175800D03*
X135662767Y-113175800D03*
G04 #@! TD*
G04 #@! TO.C,R10*
X132970367Y-113175800D03*
X132970367Y-109175800D03*
G04 #@! TD*
D20*
G04 #@! TO.C,R25*
X103665367Y-97409000D03*
X107665367Y-97409000D03*
G04 #@! TD*
G04 #@! TO.C,R26*
X141765367Y-85344000D03*
X145765367Y-85344000D03*
G04 #@! TD*
G04 #@! TO.C,R24*
X115196967Y-113512600D03*
X119196967Y-113512600D03*
G04 #@! TD*
G04 #@! TO.C,R21*
X96303600Y-84709000D03*
X92303600Y-84709000D03*
G04 #@! TD*
G04 #@! TO.C,R20*
X92335600Y-82169000D03*
X96335600Y-82169000D03*
G04 #@! TD*
D10*
G04 #@! TO.C,R19*
X111888367Y-80169000D03*
X111888367Y-84169000D03*
G04 #@! TD*
G04 #@! TO.C,R18*
X121438767Y-93897200D03*
X121438767Y-89897200D03*
G04 #@! TD*
D20*
G04 #@! TO.C,R14*
X145054167Y-113182400D03*
X141054167Y-113182400D03*
G04 #@! TD*
G04 #@! TO.C,R13*
X141054167Y-115595400D03*
X145054167Y-115595400D03*
G04 #@! TD*
D10*
G04 #@! TO.C,R12*
X138355167Y-109175800D03*
X138355167Y-113175800D03*
G04 #@! TD*
D11*
G04 #@! TO.C,U8*
X115802826Y-107430637D03*
X113902826Y-107430637D03*
X113902826Y-110130637D03*
X114852826Y-110130637D03*
X115802826Y-110130637D03*
G04 #@! TD*
D14*
G04 #@! TO.C,D14*
X138050367Y-90629658D03*
X138050367Y-93679658D03*
G04 #@! TD*
G04 #@! TO.C,D13*
X141225367Y-98553000D03*
X141225367Y-95503000D03*
G04 #@! TD*
G04 #@! TO.C,D12*
X143384367Y-90621000D03*
X143384367Y-93671000D03*
G04 #@! TD*
G04 #@! TO.C,D11*
X144527367Y-98553000D03*
X144527367Y-95503000D03*
G04 #@! TD*
G04 #@! TO.C,D10*
X148464367Y-90768000D03*
X148464367Y-93818000D03*
G04 #@! TD*
G04 #@! TO.C,D9*
X147956367Y-98553000D03*
X147956367Y-95503000D03*
G04 #@! TD*
D29*
G04 #@! TO.C,U11*
X124359767Y-104851200D03*
X123699367Y-104851200D03*
X123038967Y-104851200D03*
X123038967Y-102920800D03*
X123699367Y-102920800D03*
X124359767Y-102920800D03*
G04 #@! TD*
M02*
