M48
;DRILL file {KiCad (6.0.0-rc1-dev-159-g1e43773)} date Wed Jul 25 22:10:36 2018
;FORMAT={-:-/ absolute / inch / decimal}
FMAT,2
INCH,TZ
T1C0.0200
T2C0.0394
T3C0.0512
T4C0.1250
%
G90
G05
M72
T1
X3.9901Y-3.425
X4.0401Y-3.135
X4.0401Y-3.425
X4.0801Y-3.135
X4.0801Y-3.175
X4.0801Y-3.39
X4.1201Y-3.135
X4.1201Y-3.175
X4.1201Y-3.39
X4.1601Y-3.135
X4.1601Y-3.175
X4.1601Y-3.39
X4.2001Y-3.135
X4.3111Y-3.966
X4.7461Y-4.633
X4.7591Y-4.188
X4.7851Y-3.873
X4.8111Y-4.243
X4.8761Y-4.533
X4.9501Y-4.531
X4.9961Y-3.851
X5.0501Y-4.229
X5.0801Y-4.542
X5.3481Y-3.776
X5.3981Y-4.611
X5.6551Y-4.658
X5.9541Y-3.504
X4.0953Y-3.2545
X4.0953Y-3.3155
X4.1427Y-3.2545
X4.1427Y-3.3155
T2
X3.775Y-4.825
X3.775Y-4.925
X3.875Y-4.825
X3.875Y-4.925
X3.975Y-4.825
X3.975Y-4.925
X4.075Y-4.825
X4.075Y-4.925
X4.175Y-4.825
X4.175Y-4.925
X4.275Y-4.825
X4.275Y-4.925
X4.375Y-4.825
X4.375Y-4.925
X4.475Y-4.825
X4.475Y-4.925
X4.575Y-4.825
X4.575Y-4.925
X4.675Y-4.825
X4.675Y-4.925
X4.775Y-4.825
X4.775Y-4.925
X4.875Y-4.825
X4.875Y-4.925
X4.975Y-4.825
X4.975Y-4.925
X5.075Y-4.825
X5.075Y-4.925
X5.175Y-4.825
X5.175Y-4.925
X5.275Y-4.825
X5.275Y-4.925
X5.375Y-4.825
X5.375Y-4.925
X5.475Y-4.825
X5.475Y-4.925
X5.575Y-4.825
X5.575Y-4.925
X5.675Y-4.825
X5.675Y-4.925
X5.775Y-4.825
X5.775Y-4.925
X5.875Y-4.825
X5.875Y-4.925
X5.975Y-4.825
X5.975Y-4.925
X3.775Y-2.925
X3.775Y-3.025
X3.875Y-2.925
X3.875Y-3.025
X3.975Y-2.925
X3.975Y-3.025
X4.075Y-2.925
X4.075Y-3.025
X4.175Y-2.925
X4.175Y-3.025
X4.275Y-2.925
X4.275Y-3.025
X4.375Y-2.925
X4.375Y-3.025
X4.475Y-2.925
X4.475Y-3.025
X4.575Y-2.925
X4.575Y-3.025
X4.675Y-2.925
X4.675Y-3.025
X4.775Y-2.925
X4.775Y-3.025
X4.875Y-2.925
X4.875Y-3.025
X4.975Y-2.925
X4.975Y-3.025
X5.075Y-2.925
X5.075Y-3.025
X5.175Y-2.925
X5.175Y-3.025
X5.275Y-2.925
X5.275Y-3.025
X5.375Y-2.925
X5.375Y-3.025
X5.475Y-2.925
X5.475Y-3.025
X5.575Y-2.925
X5.575Y-3.025
X5.675Y-2.925
X5.675Y-3.025
X5.775Y-2.925
X5.775Y-3.025
X5.875Y-2.925
X5.875Y-3.025
X5.975Y-2.925
X5.975Y-3.025
T3
X3.484Y-3.1781
X3.484Y-3.375
X3.314Y-4.6781
X3.314Y-4.875
X3.314Y-4.2781
X3.314Y-4.475
T4
X3.575Y-2.975
X3.575Y-4.875
X6.175Y-3.1
T0
M30
